HIERARCHY
ROOT hip
{
OFFSET -0.31 90.95 0.24
CHANNELS 6 Xposition Yposition Zposition Zrotation Xrotation Yrotation
JOINT abdomen
{
OFFSET 0 7.23 0
CHANNELS 6 Xposition Yposition Zposition Zrotation Xrotation Yrotation
JOINT chest
{
OFFSET 0 16.54 0
CHANNELS 6 Xposition Yposition Zposition Zrotation Xrotation Yrotation
JOINT neck
{
OFFSET 0 34.21 0
CHANNELS 6 Xposition Yposition Zposition Zrotation Xrotation Yrotation
JOINT head
{
OFFSET 0 6.29 0
CHANNELS 6 Xposition Yposition Zposition Zrotation Xrotation Yrotation
End Site
{
OFFSET 0 21.21 0
}
}
}
JOINT lCollar
{
OFFSET 4.06 26.61 -1.12
CHANNELS 6 Xposition Yposition Zposition Zrotation Xrotation Yrotation
JOINT lShldr
{
OFFSET 14.17 0 0
CHANNELS 6 Xposition Yposition Zposition Zrotation Xrotation Yrotation
JOINT lForeArm
{
OFFSET 26.12 0 0
CHANNELS 6 Xposition Yposition Zposition Zrotation Xrotation Yrotation
JOINT lHand
{
OFFSET 27.71 0 0
CHANNELS 6 Xposition Yposition Zposition Zrotation Xrotation Yrotation
JOINT lThumb1
{
OFFSET 2.29 -0.46 1.83
CHANNELS 6 Xposition Yposition Zposition Zrotation Xrotation Yrotation
JOINT lThumb2
{
OFFSET 5.29 0 0
CHANNELS 6 Xposition Yposition Zposition Zrotation Xrotation Yrotation
JOINT lThumb3
{
OFFSET 3.01 0 0
CHANNELS 6 Xposition Yposition Zposition Zrotation Xrotation Yrotation
End Site
{
OFFSET 2.62 0 0
}
}
}
}
JOINT lIndex1
{
OFFSET 9.37 0.29 2.59
CHANNELS 6 Xposition Yposition Zposition Zrotation Xrotation Yrotation
JOINT lIndex2
{
OFFSET 4.34 0 0
CHANNELS 6 Xposition Yposition Zposition Zrotation Xrotation Yrotation
JOINT lIndex3
{
OFFSET 2.16 0 0
CHANNELS 6 Xposition Yposition Zposition Zrotation Xrotation Yrotation
End Site
{
OFFSET 2.20 0 0
}
}
}
}
JOINT lMid1
{
OFFSET 9.47 0.83 0.29
CHANNELS 6 Xposition Yposition Zposition Zrotation Xrotation Yrotation
JOINT lMid2
{
OFFSET 4.77 0 0
CHANNELS 6 Xposition Yposition Zposition Zrotation Xrotation Yrotation
JOINT lMid3
{
OFFSET 2.87 0 0
CHANNELS 6 Xposition Yposition Zposition Zrotation Xrotation Yrotation
End Site
{
OFFSET 2.09 0 0
}
}
}
}
JOINT lRing1
{
OFFSET 8.65 1.01 -1.70
CHANNELS 6 Xposition Yposition Zposition Zrotation Xrotation Yrotation
JOINT lRing2
{
OFFSET 4.54 0 0
CHANNELS 6 Xposition Yposition Zposition Zrotation Xrotation Yrotation
JOINT lRing3
{
OFFSET 2.50 0 0
CHANNELS 6 Xposition Yposition Zposition Zrotation Xrotation Yrotation
End Site
{
OFFSET 2.20 0 0
}
}
}
}
JOINT lPinky1
{
OFFSET 7.69 0.66 -3.90
CHANNELS 6 Xposition Yposition Zposition Zrotation Xrotation Yrotation
JOINT lPinky2
{
OFFSET 3.21 0 0
CHANNELS 6 Xposition Yposition Zposition Zrotation Xrotation Yrotation
JOINT lPinky3
{
OFFSET 1.92 0 0
CHANNELS 6 Xposition Yposition Zposition Zrotation Xrotation Yrotation
End Site
{
OFFSET 1.78 0 0
}
}
}
}
}
}
}
}
JOINT rCollar
{
OFFSET -4.06 26.61 -1.12
CHANNELS 6 Xposition Yposition Zposition Zrotation Xrotation Yrotation
JOINT rShldr
{
OFFSET -14.17 0 0
CHANNELS 6 Xposition Yposition Zposition Zrotation Xrotation Yrotation
JOINT rForeArm
{
OFFSET -26.12 0 0
CHANNELS 6 Xposition Yposition Zposition Zrotation Xrotation Yrotation
JOINT rHand
{
OFFSET -27.71 0 0
CHANNELS 6 Xposition Yposition Zposition Zrotation Xrotation Yrotation
JOINT rThumb1
{
OFFSET -2.29 -0.46 1.83
CHANNELS 6 Xposition Yposition Zposition Zrotation Xrotation Yrotation
JOINT rThumb2
{
OFFSET -5.29 0 0
CHANNELS 6 Xposition Yposition Zposition Zrotation Xrotation Yrotation
JOINT rThumb3
{
OFFSET -3.01 0 0
CHANNELS 6 Xposition Yposition Zposition Zrotation Xrotation Yrotation
End Site
{
OFFSET -2.62 0 0
}
}
}
}
JOINT rIndex1
{
OFFSET -9.37 0.29 2.59
CHANNELS 6 Xposition Yposition Zposition Zrotation Xrotation Yrotation
JOINT rIndex2
{
OFFSET -4.34 0 0
CHANNELS 6 Xposition Yposition Zposition Zrotation Xrotation Yrotation
JOINT rIndex3
{
OFFSET -2.16 0 0
CHANNELS 6 Xposition Yposition Zposition Zrotation Xrotation Yrotation
End Site
{
OFFSET -2.20 0 0
}
}
}
}
JOINT rMid1
{
OFFSET -9.47 0.83 0.29
CHANNELS 6 Xposition Yposition Zposition Zrotation Xrotation Yrotation
JOINT rMid2
{
OFFSET -4.77 0 0
CHANNELS 6 Xposition Yposition Zposition Zrotation Xrotation Yrotation
JOINT rMid3
{
OFFSET -2.87 0 0
CHANNELS 6 Xposition Yposition Zposition Zrotation Xrotation Yrotation
End Site
{
OFFSET -2.09 0 0
}
}
}
}
JOINT rRing1
{
OFFSET -8.65 1.01 -1.70
CHANNELS 6 Xposition Yposition Zposition Zrotation Xrotation Yrotation
JOINT rRing2
{
OFFSET -4.54 0 0
CHANNELS 6 Xposition Yposition Zposition Zrotation Xrotation Yrotation
JOINT rRing3
{
OFFSET -2.50 0 0
CHANNELS 6 Xposition Yposition Zposition Zrotation Xrotation Yrotation
End Site
{
OFFSET -2.20 0 0
}
}
}
}
JOINT rPinky1
{
OFFSET -7.69 0.66 -3.90
CHANNELS 6 Xposition Yposition Zposition Zrotation Xrotation Yrotation
JOINT rPinky2
{
OFFSET -3.21 0 0
CHANNELS 6 Xposition Yposition Zposition Zrotation Xrotation Yrotation
JOINT rPinky3
{
OFFSET -1.92 0 0
CHANNELS 6 Xposition Yposition Zposition Zrotation Xrotation Yrotation
End Site
{
OFFSET -1.78 0 0
}
}
}
}
}
}
}
}
}
}
JOINT lThigh
{
OFFSET 8.73 -0 0
CHANNELS 6 Xposition Yposition Zposition Zrotation Xrotation Yrotation
JOINT lShin
{
OFFSET 0 -46.66 0
CHANNELS 6 Xposition Yposition Zposition Zrotation Xrotation Yrotation
JOINT lFoot
{
OFFSET 0 -40.14 0
CHANNELS 6 Xposition Yposition Zposition Zrotation Xrotation Yrotation
JOINT lToes
{
OFFSET 0 -8.88 14.22
CHANNELS 6 Xposition Yposition Zposition Zrotation Xrotation Yrotation
End Site
{
OFFSET 0 0 6.29
}
}
}
}
}
JOINT rThigh
{
OFFSET -8.73 0 -0
CHANNELS 6 Xposition Yposition Zposition Zrotation Xrotation Yrotation
JOINT rShin
{
OFFSET 0 -46.66 0
CHANNELS 6 Xposition Yposition Zposition Zrotation Xrotation Yrotation
JOINT rFoot
{
OFFSET 0 -40.14 0
CHANNELS 6 Xposition Yposition Zposition Zrotation Xrotation Yrotation
JOINT rToes
{
OFFSET 0 -8.88 14.22
CHANNELS 6 Xposition Yposition Zposition Zrotation Xrotation Yrotation
End Site
{
OFFSET 0 0 6.29
}
}
}
}
}
}
MOTION
Frames: 8
Frame Time: 0.03
-1.12 89.92 1.19 -4.81 -2.04 -23.93 0 7.23 0 0.25 -0.96 -0.87 0 16.54 0 0.16 -0.06 -1.67 0 34.21 0 1.36 30.63 -4.14 0 6.29 0 9.95 -28.20 -15.54 4.06 26.61 -1.12 3.17 -4.48 7.13 14.17 0 0 -82.18 23.46 22.27 26.12 0 0 -0.43 0.11 -30.24 27.71 0 0 -4.91 6.35 5.76 2.29 -0.46 1.83 60.88 64.78 -67.85 5.29 0 0 -18.89 -4.43 6.25 3.01 0 0 13.13 0.74 2.90 9.37 0.29 2.59 10.34 -1.60 -3.62 4.34 0 0 -40.87 -2.90 8.53 2.16 0 0 -14.02 -0.37 2.60 9.47 0.83 0.29 -4.06 -4.05 -0.28 4.77 0 0 -29.83 -2.03 7.97 2.87 0 0 -5.22 0.04 2.94 8.65 1.01 -1.70 -21.83 2.07 4.65 4.54 0 0 -17.99 -0.43 2.76 2.50 0 0 1.07 0.06 0.88 7.69 0.66 -3.90 -33.37 -10.18 10.98 3.21 0 0 -10.04 0.38 -0.61 1.92 0 0 2.51 0.04 0.69 -4.06 26.61 -1.12 2.79 -3.91 1.92 -14.17 0 0 79.03 12.07 -4.62 -26.12 0 0 0.39 0.09 27.24 -27.71 0 0 1.90 1.09 -2.27 -2.29 -0.46 1.83 -36.97 77.75 63.18 -5.29 0 0 20.89 -5.01 -5.85 -3.01 0 0 -15.46 0.69 -2.29 -9.37 0.29 2.59 14.95 -1.44 2.44 -4.34 0 0 33.74 -1.93 -7.27 -2.16 0 0 1.43 0 0.16 -9.47 0.83 0.29 16.97 -4.37 -1.87 -4.77 0 0 31.63 -2.30 -8.44 -2.87 0 0 -4.72 -0.28 -0.20 -8.65 1.01 -1.70 20.75 2.16 -8.02 -4.54 0 0 30.17 -1.22 -4.53 -2.50 0 0 -7.68 -0.44 0.09 -7.69 0.66 -3.90 21.88 -9.10 -11.88 -3.21 0 0 26.71 -2.27 -9.55 -1.92 0 0 -5.52 -0.03 0.40 8.73 -0 0 8.96 -13.33 18.00 0 -46.66 0 8.37 49.46 6.08 0 -40.14 0 -5.83 -24.95 31.09 0 -8.88 14.22 0 0 0 -8.73 0 -0 -4.09 -20.03 -19.60 0 -46.66 0 -7.49 43.37 3.51 0 -40.14 0 8.23 -17.68 2.52 0 -8.88 14.22 0 0 -0 
-1.04 90.09 1.27 -4.65 -1.97 -25.10 0 7.23 0 0.32 -0.94 -1.11 0 16.54 0 0.30 -0.02 -2.17 0 34.21 0 1.04 30.45 -3.84 0 6.29 0 9.31 -28.14 -14.76 4.06 26.61 -1.12 2.62 -4.47 7.08 14.17 0 0 -81.15 22.43 21.62 26.12 0 0 -0.44 0.12 -31.50 27.71 0 0 -4.22 6.15 5.31 2.29 -0.46 1.83 61.00 64.67 -67.69 5.29 0 0 -18.89 -4.43 6.25 3.01 0 0 13.24 0.75 2.91 9.37 0.29 2.59 10.20 -1.59 -3.58 4.34 0 0 -40.32 -2.82 8.43 2.16 0 0 -13.51 -0.34 2.48 9.47 0.83 0.29 -3.77 -4.05 -0.28 4.77 0 0 -29.53 -1.99 7.89 2.87 0 0 -4.99 0.04 2.87 8.65 1.01 -1.70 -21.01 2.12 4.60 4.54 0 0 -17.97 -0.43 2.76 2.50 0 0 0.91 0.06 0.90 7.69 0.66 -3.90 -32.14 -10.05 10.9 3.21 0 0 -10.24 0.38 -0.54 1.92 0 0 2.08 0.04 0.85 -4.06 26.61 -1.12 2.62 -3.93 1.74 -14.17 0 0 78.81 11.50 -4.43 -26.12 0 0 0.37 0.08 26.02 -27.71 0 0 1.54 1.25 -2.92 -2.29 -0.46 1.83 -36.77 77.87 63.45 -5.29 0 0 20.97 -5.03 -5.88 -3.01 0 0 -15.37 0.68 -2.28 -9.37 0.29 2.59 16.46 -1.51 1.69 -4.34 0 0 33.31 -1.87 -7.19 -2.16 0 0 1.31 0 0.19 -9.47 0.83 0.29 18.21 -4.43 -2.61 -4.77 0 0 31.31 -2.25 -8.36 -2.87 0 0 -4.82 -0.27 -0.18 -8.65 1.01 -1.70 21.79 2.10 -8.77 -4.54 0 0 29.96 -1.20 -4.50 -2.50 0 0 -7.75 -0.40 0.10 -7.69 0.66 -3.90 22.58 -9.11 -12.66 -3.21 0 0 26.57 -2.25 -9.50 -1.92 0 0 -5.56 -0.03 0.42 8.73 -0 0 8.67 -12.88 18.36 0 -46.66 0 8.15 48.80 6.24 0 -40.14 0 -5.72 -24.73 31.83 0 -8.88 14.22 0 0 0 -8.73 0 -0 -4.08 -20.03 -19.60 0 -46.66 0 -7.78 42.80 4.38 0 -40.14 0 8.17 -17.23 2.82 0 -8.88 14.22 0 0 0 
-0.97 90.29 1.33 -4.46 -2.01 -25.31 0 7.23 0 0.35 -0.93 -1.29 0 16.54 0 0.37 -0.01 -2.52 0 34.21 0 0.85 30.29 -3.69 0 6.29 0 8.92 -28.14 -14.46 4.06 26.61 -1.12 2.05 -4.46 7.03 14.17 0 0 -80.02 21.33 20.81 26.12 0 0 -0.46 0.13 -32.56 27.71 0 0 -3.93 5.85 4.37 2.29 -0.46 1.83 61.12 64.59 -67.44 5.29 0 0 -18.89 -4.43 6.25 3.01 0 0 13.41 0.76 2.91 9.37 0.29 2.59 10.17 -1.59 -3.52 4.34 0 0 -39.81 -2.75 8.34 2.16 0 0 -13.03 -0.31 2.38 9.47 0.83 0.29 -3.54 -4.05 -0.26 4.77 0 0 -29.23 -1.95 7.82 2.87 0 0 -4.78 0.05 2.81 8.65 1.01 -1.70 -20.45 2.16 4.58 4.54 0 0 -17.91 -0.43 2.75 2.50 0 0 0.79 0.06 0.92 7.69 0.66 -3.90 -31.31 -9.97 10.85 3.21 0 0 -10.37 0.38 -0.49 1.92 0 0 1.70 0.05 0.99 -4.06 26.61 -1.12 2.45 -3.96 1.51 -14.17 0 0 78.67 11.23 -4.61 -26.12 0 0 0.36 0.08 25.24 -27.71 0 0 1.46 1.49 -3.65 -2.29 -0.46 1.83 -36.72 77.94 63.85 -5.29 0 0 21.07 -5.04 -5.92 -3.01 0 0 -15.21 0.67 -2.27 -9.37 0.29 2.59 18.23 -1.61 0.86 -4.34 0 0 32.76 -1.80 -7.08 -2.16 0 0 1.16 0 0.22 -9.47 0.83 0.29 19.62 -4.51 -3.41 -4.77 0 0 30.89 -2.19 -8.26 -2.87 0 0 -4.94 -0.26 -0.14 -8.65 1.01 -1.70 22.93 2.03 -9.54 -4.54 0 0 29.67 -1.18 -4.46 -2.50 0 0 -7.84 -0.37 0.12 -7.69 0.66 -3.90 23.31 -9.13 -13.44 -3.21 0 0 26.38 -2.21 -9.44 -1.92 0 0 -5.59 -0.03 0.43 8.73 -0 0 8.35 -12.52 18.49 0 -46.66 0 7.99 48.02 6.36 0 -40.14 0 -5.55 -24.44 31.96 0 -8.88 14.22 0 0 0 -8.73 0 -0 -4.15 -19.81 -19.46 0 -46.66 0 -7.79 42.16 4.54 0 -40.14 0 8.19 -16.88 2.72 0 -8.88 14.22 0 0 0 
-0.91 90.60 1.33 -4.23 -2.10 -24.72 0 7.23 0 0.37 -0.92 -1.40 0 16.54 0 0.41 0.01 -2.75 0 34.21 0 0.76 30.16 -3.66 0 6.29 0 8.71 -28.24 -14.46 4.06 26.61 -1.12 1.55 -4.45 6.98 14.17 0 0 -79.08 20.46 19.98 26.12 0 0 -0.47 0.14 -33.47 27.71 0 0 -4.03 5.52 3.09 2.29 -0.46 1.83 61.20 64.56 -67.13 5.29 0 0 -18.89 -4.43 6.25 3.01 0 0 13.65 0.78 2.92 9.37 0.29 2.59 10.15 -1.59 -3.45 4.34 0 0 -39.37 -2.68 8.26 2.16 0 0 -12.63 -0.29 2.30 9.47 0.83 0.29 -3.47 -4.05 -0.21 4.77 0 0 -28.93 -1.91 7.74 2.87 0 0 -4.58 0.05 2.76 8.65 1.01 -1.70 -20.28 2.16 4.62 4.54 0 0 -17.76 -0.42 2.73 2.50 0 0 0.74 0.06 0.93 7.69 0.66 -3.90 -31.06 -9.94 10.88 3.21 0 0 -10.36 0.38 -0.49 1.92 0 0 1.47 0.05 1.08 -4.06 26.61 -1.12 2.26 -3.98 1.30 -14.17 0 0 78.62 11.11 -5.08 -26.12 0 0 0.36 0.07 24.88 -27.71 0 0 1.50 1.69 -4.33 -2.29 -0.46 1.83 -36.80 77.95 64.31 -5.29 0 0 21.15 -5.06 -5.95 -3.01 0 0 -15.01 0.65 -2.27 -9.37 0.29 2.59 19.98 -1.71 0.05 -4.34 0 0 32.19 -1.73 -6.97 -2.16 0 0 0.98 0 0.26 -9.47 0.83 0.29 21.01 -4.59 -4.16 -4.77 0 0 30.46 -2.13 -8.16 -2.87 0 0 -5.08 -0.26 -0.10 -8.65 1.01 -1.70 24.02 1.96 -10.23 -4.54 0 0 29.37 -1.16 -4.42 -2.50 0 0 -7.92 -0.34 0.14 -7.69 0.66 -3.90 24.00 -9.15 -14.10 -3.21 0 0 26.19 -2.18 -9.38 -1.92 0 0 -5.62 -0.03 0.44 8.73 -0 0 8.10 -12.14 18.81 0 -46.66 0 7.86 46.87 6.48 0 -40.14 0 -5.31 -23.94 31.23 0 -8.88 14.22 0 0 0 -8.73 0 -0 -4.29 -19.30 -19.36 0 -46.66 0 -7.57 41.18 4.19 0 -40.14 0 8.26 -16.46 2.35 0 -8.88 14.22 0 0 0 
-0.86 90.87 1.25 -4.06 -2.12 -23.40 0 7.23 0 0.39 -0.90 -1.46 0 16.54 0 0.44 0.05 -2.88 0 34.21 0 0.69 30.09 -3.66 0 6.29 0 8.64 -28.41 -14.61 4.06 26.61 -1.12 1.11 -4.44 6.93 14.17 0 0 -78.43 19.90 19.22 26.12 0 0 -0.48 0.14 -34.23 27.71 0 0 -4.34 5.29 1.62 2.29 -0.46 1.83 61.20 64.59 -66.83 5.29 0 0 -18.89 -4.43 6.25 3.01 0 0 13.90 0.80 2.93 9.37 0.29 2.59 10.07 -1.59 -3.35 4.34 0 0 -39.04 -2.63 8.20 2.16 0 0 -12.33 -0.28 2.23 9.47 0.83 0.29 -3.60 -4.05 -0.11 4.77 0 0 -28.65 -1.87 7.68 2.87 0 0 -4.41 0.06 2.71 8.65 1.01 -1.70 -20.51 2.15 4.71 4.54 0 0 -17.56 -0.41 2.70 2.50 0 0 0.78 0.06 0.93 7.69 0.66 -3.90 -31.33 -9.97 10.96 3.21 0 0 -10.22 0.38 -0.54 1.92 0 0 1.38 0.05 1.11 -4.06 26.61 -1.12 2.03 -4.01 1.12 -14.17 0 0 78.66 10.99 -5.69 -26.12 0 0 0.36 0.07 24.72 -27.71 0 0 1.46 1.59 -4.89 -2.29 -0.46 1.83 -36.98 77.91 64.73 -5.29 0 0 21.19 -5.06 -5.97 -3.01 0 0 -14.80 0.63 -2.26 -9.37 0.29 2.59 21.45 -1.80 -0.62 -4.34 0 0 31.68 -1.67 -6.87 -2.16 0 0 0.80 0 0.30 -9.47 0.83 0.29 22.18 -4.67 -4.76 -4.77 0 0 30.07 -2.08 -8.06 -2.87 0 0 -5.22 -0.25 -0.06 -8.65 1.01 -1.70 24.94 1.90 -10.73 -4.54 0 0 29.10 -1.14 -4.39 -2.50 0 0 -8.00 -0.32 0.15 -7.69 0.66 -3.90 24.59 -9.18 -14.54 -3.21 0 0 26.01 -2.15 -9.32 -1.92 0 0 -5.64 -0.03 0.45 8.73 -0 0 7.79 -12.10 18.23 0 -46.66 0 7.65 45.91 6.64 0 -40.14 0 -5.05 -23.45 30.68 0 -8.88 14.22 0 0 0 -8.73 0 -0 -4.46 -18.77 -19.37 0 -46.66 0 -7.16 40.25 3.67 0 -40.14 0 8.32 -16.11 1.56 0 -8.88 14.22 0 0 0 
-0.82 91.14 1.13 -3.91 -2.09 -21.70 0 7.23 0 0.42 -0.87 -1.46 0 16.54 0 0.48 0.09 -2.89 0 34.21 0 0.62 30.08 -3.67 0 6.29 0 8.65 -28.54 -14.78 4.06 26.61 -1.12 0.72 -4.44 6.89 14.17 0 0 -78.02 19.60 18.57 26.12 0 0 -0.49 0.15 -34.81 27.71 0 0 -4.67 5.23 0.06 2.29 -0.46 1.83 61.10 64.69 -66.60 5.29 0 0 -18.89 -4.43 6.25 3.01 0 0 14.15 0.83 2.94 9.37 0.29 2.59 9.87 -1.58 -3.22 4.34 0 0 -38.84 -2.61 8.17 2.16 0 0 -12.15 -0.27 2.19 9.47 0.83 0.29 -3.93 -4.05 0.01 4.77 0 0 -28.46 -1.84 7.63 2.87 0 0 -4.28 0.06 2.68 8.65 1.01 -1.70 -20.99 2.12 4.83 4.54 0 0 -17.37 -0.40 2.67 2.50 0 0 0.86 0.06 0.91 7.69 0.66 -3.90 -31.92 -10.02 11.08 3.21 0 0 -10.05 0.38 -0.61 1.92 0 0 1.41 0.05 1.10 -4.06 26.61 -1.12 1.83 -4.03 1.05 -14.17 0 0 78.69 10.78 -6.35 -26.12 0 0 0.35 0.07 24.56 -27.71 0 0 1.25 1.03 -5.35 -2.29 -0.46 1.83 -37.18 77.85 64.99 -5.29 0 0 21.15 -5.06 -5.95 -3.01 0 0 -14.62 0.61 -2.25 -9.37 0.29 2.59 22.43 -1.87 -1.09 -4.34 0 0 31.33 -1.63 -6.80 -2.16 0 0 0.63 0 0.34 -9.47 0.83 0.29 22.98 -4.72 -5.13 -4.77 0 0 29.80 -2.04 -8.00 -2.87 0 0 -5.34 -0.26 -0.03 -8.65 1.01 -1.70 25.58 1.86 -10.98 -4.54 0 0 28.90 -1.12 -4.36 -2.50 0 0 -8.07 -0.32 0.17 -7.69 0.66 -3.90 25.06 -9.21 -14.71 -3.21 0 0 25.87 -2.13 -9.27 -1.92 0 0 -5.65 -0.04 0.45 8.73 -0 0 7.72 -12.21 17.91 0 -46.66 0 7.43 45.03 6.80 0 -40.14 0 -4.82 -22.93 29.48 0 -8.88 14.22 0 0 0 -8.73 0 -0 -4.45 -18.23 -19.20 0 -46.66 0 -6.79 39.22 2.75 0 -40.14 0 8.26 -15.81 0.67 0 -8.88 14.22 0 0 -0 
-0.80 91.39 0.99 -3.77 -2.05 -19.82 0 7.23 0 0.43 -0.85 -1.41 0 16.54 0 0.47 0.13 -2.78 0 34.21 0 0.60 30.13 -3.69 0 6.29 0 8.68 -28.57 -14.92 4.06 26.61 -1.12 0.42 -4.43 6.89 14.17 0 0 -77.76 19.40 18.07 26.12 0 0 -0.49 0.15 -35.13 27.71 0 0 -4.92 5.28 -1.50 2.29 -0.46 1.83 60.91 64.86 -66.47 5.29 0 0 -18.89 -4.43 6.25 3.01 0 0 14.34 0.84 2.94 9.37 0.29 2.59 9.50 -1.56 -3.06 4.34 0 0 -38.78 -2.60 8.16 2.16 0 0 -12.10 -0.27 2.18 9.47 0.83 0.29 -4.36 -4.05 0.16 4.77 0 0 -28.40 -1.84 7.61 2.87 0 0 -4.22 0.06 2.66 8.65 1.01 -1.70 -21.52 2.09 4.96 4.54 0 0 -17.32 -0.40 2.66 2.50 0 0 0.94 0.06 0.90 7.69 0.66 -3.90 -32.51 -10.08 11.18 3.21 0 0 -9.99 0.38 -0.63 1.92 0 0 1.49 0.05 1.07 -4.06 26.61 -1.12 1.79 -4.03 1.14 -14.17 0 0 78.56 10.38 -7.01 -26.12 0 0 0.35 0.07 24.31 -27.71 0 0 0.90 0.11 -5.72 -2.29 -0.46 1.83 -37.32 77.80 65.00 -5.29 0 0 20.99 -5.02 -5.88 -3.01 0 0 -14.48 0.60 -2.24 -9.37 0.29 2.59 22.75 -1.89 -1.29 -4.34 0 0 31.21 -1.62 -6.78 -2.16 0 0 0.50 0 0.37 -9.47 0.83 0.29 23.29 -4.74 -5.23 -4.77 0 0 29.70 -2.02 -7.97 -2.87 0 0 -5.44 -0.28 -0 -8.65 1.01 -1.70 25.90 1.83 -10.96 -4.54 0 0 28.81 -1.11 -4.35 -2.50 0 0 -8.12 -0.34 0.17 -7.69 0.66 -3.90 25.41 -9.25 -14.59 -3.21 0 0 25.79 -2.12 -9.24 -1.92 0 0 -5.66 -0.04 0.46 8.73 -0 0 7.82 -12.36 18.15 0 -46.66 0 7.39 44.20 6.85 0 -40.14 0 -4.60 -22.40 27.59 0 -8.88 14.22 0 0 0 -8.73 0 -0 -4.43 -17.70 -19.21 0 -46.66 0 -6.61 38.21 1.89 0 -40.14 0 8.23 -15.52 -0.12 0 -8.88 14.22 0 0 -0 
-0.79 91.61 0.91 -3.62 -2.12 -17.98 0 7.23 0 0.40 -0.84 -1.28 0 16.54 0 0.40 0.16 -2.53 0 34.21 0 0.67 30.24 -3.73 0 6.29 0 8.68 -28.48 -15.02 4.06 26.61 -1.12 0.27 -4.43 6.91 14.17 0 0 -77.65 19.15 17.76 26.12 0 0 -0.49 0.15 -35.10 27.71 0 0 -5.13 5.36 -2.97 2.29 -0.46 1.83 60.65 65.08 -66.47 5.29 0 0 -18.89 -4.43 6.25 3.01 0 0 14.46 0.85 2.95 9.37 0.29 2.59 8.98 -1.54 -2.88 4.34 0 0 -38.87 -2.61 8.17 2.16 0 0 -12.18 -0.27 2.20 9.47 0.83 0.29 -4.79 -4.05 0.30 4.77 0 0 -28.52 -1.85 7.65 2.87 0 0 -4.26 0.06 2.67 8.65 1.01 -1.70 -21.87 2.07 5.04 4.54 0 0 -17.50 -0.41 2.69 2.50 0 0 0.96 0.06 0.90 7.69 0.66 -3.90 -32.79 -10.11 11.21 3.21 0 0 -10.21 0.38 -0.55 1.92 0 0 1.55 0.05 1.05 -4.06 26.61 -1.12 2.01 -4.00 1.39 -14.17 0 0 78.18 9.73 -7.67 -26.12 0 0 0.35 0.07 23.99 -27.71 0 0 0.53 -0.88 -6.01 -2.29 -0.46 1.83 -37.36 77.78 64.73 -5.29 0 0 20.73 -4.98 -5.77 -3.01 0 0 -14.41 0.60 -2.24 -9.37 0.29 2.59 22.30 -1.86 -1.16 -4.34 0 0 31.38 -1.64 -6.81 -2.16 0 0 0.44 0 0.38 -9.47 0.83 0.29 23.05 -4.73 -5.03 -4.77 0 0 29.80 -2.04 -8.00 -2.87 0 0 -5.48 -0.31 0 -8.65 1.01 -1.70 25.88 1.83 -10.67 -4.54 0 0 28.84 -1.12 -4.35 -2.50 0 0 -8.15 -0.38 0.17 -7.69 0.66 -3.90 25.64 -9.29 -14.22 -3.21 0 0 25.76 -2.11 -9.23 -1.92 0 0 -5.68 -0.04 0.46 8.73 -0 0 7.86 -12.39 18.28 0 -46.66 0 7.28 43.45 6.94 0 -40.14 0 -4.40 -21.95 25.79 0 -8.88 14.22 0 0 -0 -8.73 0 -0 -4.53 -17.09 -19.19 0 -46.66 0 -6.25 37.39 1.11 0 -40.14 0 8.18 -15.39 -1.03 0 -8.88 14.22 0 0 0 
